<svg xmlns="http://www.w3.org/2000/svg" xmlns:xlink="http://www.w3.org/1999/xlink" width="727.324" height="867.545" viewBox="0 0 436.395 520.527" version="1.2"><defs><symbol overflow="visible" id="P"><path d="M5.516-5.86a.29.29 0 00.03-.109c0-.031-.343-.234-.687-.343a3.43 3.43 0 00-.906-.11c-1.422 0-2.484 1.11-2.484 2.094 0 .406.156.766.453 1.031.297.266.469.313 1.328.531.344.079.953.235.953.938 0 .64-.672 1.36-1.578 1.36-.313 0-1.156-.063-1.813-.735l-.265.656a.29.29 0 00-.031.11c0 .046.78.64 1.968.64C3.875.203 5-.953 5-2.078c0-.578-.297-.922-.375-1-.344-.36-.531-.406-1.25-.594-.484-.125-.672-.172-.844-.312-.094-.11-.265-.282-.265-.594 0-.625.703-1.203 1.546-1.203.75 0 1.126.265 1.438.578zm0 0"/></symbol><symbol overflow="visible" id="a"><path d="M6.313-6.531c.015-.078.015-.094.015-.125 0-.094-.016-.11-.281-.188C5.625-7 5.14-7.14 4.28-7.14 1.734-7.14.61-5.797.61-3.453.61-.891 1.97.219 4.281.219c.828 0 1.235-.094 1.89-.453.266-.141.282-.157.282-.25 0-.125-.047-.641-.062-.782-.016-.078-.032-.187-.125-.187-.047 0-.063 0-.188.125-.562.39-.906.547-1.766.547-1.812 0-2.234-1.25-2.234-2.672 0-.938.14-2.688 2.188-2.688.765 0 1.187.235 1.609.594.063.047.094.063.14.063.063 0 .11-.032.141-.172zm0 0"/></symbol><symbol overflow="visible" id="c"><path d="M7.297-3.406c0-2-.734-3.735-3.344-3.735C1.203-7.14.61-5.234.61-3.406c0 1.86.641 3.625 3.344 3.625 2.563 0 3.344-1.578 3.344-3.625zM3.953-.578c-1.875 0-1.875-2.078-1.875-2.985 0-.89 0-2.796 1.875-2.796s1.875 1.89 1.875 2.796c0 .876 0 2.985-1.875 2.985zm0 0"/></symbol><symbol overflow="visible" id="d"><path d="M2.688-4.39c-.22-.063-.829-.282-.829-.86 0-.844.844-.86 1.188-.86.547 0 1.047.126 1.531.61.172.14.172.156.219.156.062 0 .11-.031.14-.172l.141-.875c.031-.078.031-.093.031-.125 0-.078-.015-.093-.265-.218-.703-.36-1.297-.407-1.797-.407-.89 0-2.438.22-2.438 2.079 0 .703.375 1.171.563 1.359.5.515.969.625 1.75.797.562.14.781.187 1 .39.094.094.312.297.312.688 0 .937-.859.953-1.187.953-.844 0-1.578-.328-2.063-.781-.125-.125-.14-.125-.187-.125-.063 0-.11.031-.14.187l-.141.86c-.032.093-.032.109-.032.14 0 .203 1.047.563 1.094.578A4.648 4.648 0 003.047.22C4.53.219 5.469-.453 5.469-2c0-1.11-.828-1.953-1.813-2.172zm0 0"/></symbol><symbol overflow="visible" id="e"><path d="M2.375-3.094H5c.297 0 .469-.078.469-.469 0-.374-.125-.468-.469-.468H2.375v-1.844h.484c.782 0 1.563.016 2.344.016.344 0 .578 0 .578-.47v-.077c0-.328-.062-.485-.484-.485H1.39c-.36 0-.485.11-.485.485v5.922c0 .359.11.484.485.484h4.062c.375 0 .484-.125.484-.484v-.141c0-.469-.234-.469-.562-.469-.516 0-1.031.016-1.547.016-.25 0-1.281.016-1.453.016zm0 0"/></symbol><symbol overflow="visible" id="f"><path d="M1.39-6.922c-.359 0-.484.11-.484.484v5.954c0 .359.11.484.485.484h2.625c2.437 0 3.28-1.453 3.28-3.406 0-.797-.124-1.75-.687-2.469-.75-.922-1.937-1.047-2.593-1.047zm.954 6.063v-5.204h1.281c2.14 0 2.234 1.532 2.234 2.657S5.75-.86 3.625-.86zm0 0"/></symbol><symbol overflow="visible" id="g"><path d="M2.375-6.438c0-.328-.063-.484-.469-.484h-.515c-.36 0-.47.11-.47.484v5.954c0 .359.11.484.47.484h.515c.375 0 .469-.125.469-.484zm0 0"/></symbol><symbol overflow="visible" id="h"><path d="M2.922-5.86v5.376c0 .359.11.484.484.484h.5c.375 0 .485-.125.485-.484V-5.86c.437 0 1.546.03 1.984.03.281 0 .516 0 .516-.468v-.078c0-.328-.063-.484-.47-.484H.876c-.36 0-.469.109-.469.484v.078c0 .469.235.469.516.469zm0 0"/></symbol><symbol overflow="visible" id="i"><path d="M3.016-6.516c-.204-.406-.5-.406-.704-.406h-.921c-.36 0-.485.11-.485.484v5.954c0 .359.11.484.485.484h.265c.375 0 .485-.125.485-.484V-5.72L4.89-.406c.203.406.5.406.703.406h.922C6.89 0 7-.125 7-.484v-5.954c0-.328-.078-.484-.484-.484H6.25c-.375 0-.484.14-.484.484v5.235zm0 0"/></symbol><symbol overflow="visible" id="j"><path d="M6.969-6.484a.349.349 0 00.093-.204c0-.234-.218-.234-.359-.234h-.5c-.203 0-.516 0-.781.375L4.453-5.14c-.36.5-.547.766-.719 1.125-.14-.312-.343-.593-.546-.875L2.062-6.516c-.234-.328-.453-.406-.812-.406H.594c-.14 0-.36 0-.36.234 0 .063.032.125.094.204l2.61 3.718v2.282c0 .359.109.484.468.484h.485c.343 0 .468-.094.468-.469v-2.297zm0 0"/></symbol><symbol overflow="visible" id="k"><path d="M4.813-3.188c.625-.156 1.578-.53 1.578-1.765 0-1.969-2.157-1.969-2.61-1.969h-2.39c-.36 0-.485.11-.485.484v5.954c0 .359.11.484.485.484h.468c.391 0 .485-.125.485-.484v-2.61h1.11l1.624 2.86c.14.234.25.234.469.234h.594c.203 0 .375 0 .375-.297zm-2.47-.624v-2.25h1.298C4.797-6.063 5-5.61 5-4.938c0 .578-.14 1.125-1.36 1.125zm0 0"/></symbol><symbol overflow="visible" id="l"><path d="M6.984-6.469c.032-.125.047-.125.047-.187 0-.266-.25-.266-.39-.266H6.25c-.203 0-.5 0-.656.438L4.25-2.781 3.734-1.25c-.015-.031-.125-.375-.28-.781l-1.61-4.453c-.157-.438-.438-.438-.64-.438H.655c-.14 0-.39 0-.39.266 0 .062.015.062.046.187L2.547-.422c.156.422.437.422.64.422h.922c.204 0 .485 0 .641-.438zm0 0"/></symbol><symbol overflow="visible" id="m"><path d="M4.719-6.484c-.14-.438-.438-.438-.625-.438h-.89c-.188 0-.485 0-.626.438L.468-.47c-.046.125-.046.156-.046.203 0 .266.25.266.39.266h.36c.172 0 .484 0 .625-.406l.39-1.094h2.75c.172.469.188.516.344.953.125.344.188.547.672.547h.531c.141 0 .391 0 .391-.266 0-.046 0-.078-.047-.203zM3.203-4.47c.14-.453.281-.828.36-1.187.062.25.062.265.14.5l.938 2.797H2.484zm0 0"/></symbol><symbol overflow="visible" id="n"><path d="M1.39-6.922c-.359 0-.484.11-.484.484v5.954c0 .359.11.484.485.484h2.718c.75 0 2.579-.125 2.579-1.938 0-1.406-1.391-1.625-1.75-1.687.921-.203 1.437-.719 1.437-1.5 0-1.797-2.125-1.797-2.531-1.797zm.923 2.969v-2.11h1.171c.391 0 1.547.032 1.547.97 0 1.14-1.312 1.14-1.562 1.14zm0 3.094v-2.375h1.25c.359 0 1.734 0 1.734 1.28 0 1.032-1.063 1.095-1.531 1.095zm0 0"/></symbol><symbol overflow="visible" id="o"><path d="M7-6.438c0-.328-.078-.484-.484-.484h-.5c-.391 0-.485.14-.485.484v2.375H2.375v-2.375c0-.328-.078-.484-.484-.484h-.5c-.36 0-.485.11-.485.484v5.954c0 .359.11.484.485.484h.5c.375 0 .484-.125.484-.484v-2.641h3.156v2.64c0 .329.078.485.485.485h.5C6.89 0 7-.125 7-.484zm0 0"/></symbol><symbol overflow="visible" id="p"><path d="M2.375-2.984h2.313c.312 0 .468-.063.468-.47 0-.358-.125-.468-.468-.468H2.374v-1.953h.422c.75 0 1.515.016 2.25.016.344 0 .578 0 .578-.47v-.077c0-.328-.078-.485-.484-.485H1.39c-.36 0-.485.11-.485.485v5.922c0 .359.11.484.485.484h.5c.375 0 .484-.125.484-.484zm0 0"/></symbol><symbol overflow="visible" id="q"><path d="M10.063-6.438c.046-.14.046-.187.046-.187 0-.297-.265-.297-.406-.297h-.219c-.187 0-.468 0-.593.438L7.828-2.547c-.125.5-.219.828-.312 1.266H7.5c-.047-.266-.047-.282-.281-1.157L6.14-6.484c-.11-.391-.313-.438-.594-.438H4.89c-.22 0-.5 0-.61.438l-.875 3.28-.25.985c-.11.469-.203.781-.219.938-.093-.516-.328-1.39-.5-2.016l-.859-3.187c-.11-.438-.406-.438-.594-.438H.641c-.125 0-.407 0-.407.297 0 0 0 .047.047.188L1.906-.423c.125.422.39.422.61.422h.656c.203 0 .484 0 .61-.453L4.827-4.36c.14-.532.219-.813.313-1.297h.015c.125.578.172.828.36 1.484L6.53-.422c.11.422.39.422.594.422h.703c.219 0 .5 0 .61-.422zm0 0"/></symbol><symbol overflow="visible" id="r"><path d="M3.531-6.656c0-.188 0-.485-.437-.485-.188 0-.235.016-.36.141-.171.156-.546.531-1.53.547-.188 0-.454.078-.454.36 0 .359.36.359.484.359.297 0 .657-.047.938-.125v5.14H1.39c-.125 0-.47 0-.47.36 0 .359.345.359.47.359h2.843c.11 0 .485 0 .485-.36 0-.359-.375-.359-.485-.359h-.703zm0 0"/></symbol><symbol overflow="visible" id="s"><path d="M.64-.844c-.093.094-.093.11-.093.281v.079c0 .359.11.484.484.484h3.422c.375 0 .469-.125.469-.484v-.11c0-.156 0-.36-.203-.437-.078-.047-.39-.047-.594-.047-.219 0-.453.016-.672.016H1.828c.438-.407.89-.829 1.328-1.25.14-.126.516-.438.672-.579.547-.53 1.094-1.062 1.094-1.953 0-1.218-.875-2.297-2.344-2.297-.344 0-.906.047-1.39.438-.094.078-.547.437-.735 1.094l.5.64c.063.078.094.125.156.125.094 0 .11-.078.141-.187.203-.688.547-1.11 1.188-1.11.765 0 1.093.704 1.093 1.313 0 .64-.375 1.312-.984 1.953zm0 0"/></symbol><symbol overflow="visible" id="t"><path d="M6.563-2.953c0-.266 0-.281-.266-.281H4.53c-.265 0-.281.015-.281.28v.392c0 .265.016.265.281.265h.688V-.89c-.282.079-.657.11-.938.11-2 0-2.203-1.594-2.203-2.672 0-.969.14-2.688 2.188-2.688.984 0 1.406.407 1.796.75.016.016.047.047.094.047.063 0 .11-.031.14-.172l.157-.875c.016-.078.016-.093.016-.125 0-.109-.063-.125-.282-.218-.625-.282-1.14-.407-1.937-.407C1.766-7.14.61-5.828.61-3.453.61-1.031 1.843.219 4.233.219c1.313 0 2.25-.485 2.313-.531.016-.032.016-.047.016-.22zm0 0"/></symbol><symbol overflow="visible" id="u"><path d="M4.203-4.031L6.813-6.5c.125-.11.125-.172.125-.203 0-.219-.204-.219-.344-.219h-.61c-.156 0-.359 0-.578.203L2.203-3.687v-2.75c0-.329-.062-.485-.484-.485H1.39c-.36 0-.485.11-.485.484v5.954c0 .359.11.484.485.484h.328c.39 0 .484-.125.484-.484v-1.672l1.11-1.047 2.234 3c.156.203.312.203.5.203h.594c.203 0 .343 0 .343-.297zm0 0"/></symbol><symbol overflow="visible" id="v"><path d="M5.531-3.266c-.203.516-.578 1.438-.656 1.782h-.016c-.078-.36-.5-1.344-.703-1.875L2.875-6.516c-.156-.406-.484-.406-.656-.406H1.39c-.36 0-.485.11-.485.484v5.954c0 .359.11.484.485.484h.265c.375 0 .485-.125.485-.484v-5.141c.109.438.562 1.547.796 2.14L4.095-.64c.187.422.422.422.765.422.329 0 .579 0 .75-.422l1.282-3.14c.093-.235.64-1.594.703-1.844h.015v5.14c0 .329.063.485.47.485h.28c.375 0 .47-.125.47-.484v-5.954c0-.328-.063-.484-.47-.484h-.843c-.25 0-.5.031-.672.438zm0 0"/></symbol><symbol overflow="visible" id="w"><path d="M2.281-2.563h1.453c1.391 0 2.61-1.062 2.61-2.156 0-.843-.719-1.5-1.828-1.5H2.203L.875 0h.86zm.64-3.124h1.267c.906 0 1.375.437 1.375 1.03 0 .673-.625 1.548-1.922 1.548H2.375zm0 0"/></symbol><symbol overflow="visible" id="x"><path d="M4.266-2.64c.015-.126.015-.188.015-.297 0-.626-.406-1.204-1.25-1.204-.5 0-1.015.125-1.531.407l-.078.625c.437-.266.906-.454 1.484-.454.485 0 .625.36.625.688 0 .11-.062.656-.14.672h-.204c-.296.015-.968.047-1.624.297-.766.281-.97.687-.97 1.11 0 .343.157.89.845.89.328 0 1.062-.063 1.609-.438L2.984 0h.704zm-.954.921c-.03.188-.078.375-.109.547-.14.547-.797.688-1.172.688-.312 0-.734-.11-.734-.485 0-.719 1.89-.75 2.016-.75zm0 0"/></symbol><symbol overflow="visible" id="y"><path d="M3.984-3.844a2.672 2.672 0 00-1.28-.297C1.03-4.14.905-2.906.905-2.719c0 .766.844.938 1.078.985.547.109.907.171.907.546 0 .016 0 .688-.985.688-.297 0-.843-.063-1.328-.453l-.25.64c.61.407 1.266.407 1.453.407 1.532 0 1.813-1.125 1.813-1.469a.918.918 0 00-.36-.75c-.234-.203-.453-.25-.859-.328-.453-.078-.766-.156-.766-.5 0-.016 0-.61.891-.61.5 0 .875.11 1.234.344zm0 0"/></symbol><symbol overflow="visible" id="z"><path d="M2.828-6.14h-.86l-.187.859h.86zM.734 0h.72l.843-3.984h-.719zm0 0"/></symbol><symbol overflow="visible" id="A"><path d="M4.953-3.984h-.687L3.234-2.266c-.187.297-.375.625-.546.907-.126.234-.376.671-.438.859h-.016c0-.547-.187-1.547-.203-1.656L1.72-3.984H.984L1.704 0h.827zm0 0"/></symbol><symbol overflow="visible" id="B"><path d="M4.25-1.969c.063-.25.094-.5.094-.765 0-1.094-.672-1.407-1.297-1.407-1.219 0-2.36 1.329-2.36 2.594 0 .906.61 1.64 1.61 1.64.812 0 1.547-.405 1.547-.452.015-.032.062-.391.094-.594-.626.375-1.172.469-1.5.469-.75 0-1.079-.594-1.079-1.172 0-.125 0-.157.032-.313zM1.562-2.5c.329-.672.891-1.047 1.375-1.047.891 0 .891.844.891 1.047zm0 0"/></symbol><symbol overflow="visible" id="C"><path d="M4.797-2.453c0-1.016-.703-1.688-1.625-1.688C1.844-4.14.64-2.78.64-1.53c0 .937.671 1.625 1.64 1.625 1.219 0 2.516-1.125 2.516-2.547zM2.407-.516c-.548 0-1-.343-1-1.093 0-.985.671-1.938 1.64-1.938.422 0 1.031.203 1.031 1.063 0 .937-.672 1.968-1.672 1.968zm0 0"/></symbol><symbol overflow="visible" id="D"><path d="M1.578-.406c.281.328.703.5 1.14.5 1.063 0 2.204-1.203 2.204-2.719 0-.719-.313-1.453-1.063-1.453-.312 0-.937.062-1.64.531l.094-.437h-.72L.376 1.734h.75zm.531-2.578c.375-.36.766-.485 1.079-.485.64 0 .968.547.968 1.11 0 .968-.843 1.875-1.703 1.875-.156 0-.578-.032-.734-.594zm0 0"/></symbol><symbol overflow="visible" id="E"><path d="M4.594-2.719a1.66 1.66 0 00.062-.453c0-.36-.078-.906-1.031-.906-.75 0-1.234.453-1.484.672l.14-.625h-.687L.719 0h.75l.437-2.031c.203-.953.61-1.469 1.219-1.469.672 0 .75.328.75.594 0 .11-.016.172-.031.234L3.28 0h.75zm0 0"/></symbol><symbol overflow="visible" id="F"><path d="M5.578-.969c-.656.39-1.031.563-1.844.563-1.296 0-1.703-1.14-1.703-2 0-1.672 1.328-3.406 2.828-3.406.657 0 1.063.187 1.454.484l.312-.766A3.878 3.878 0 005-6.422c-2.047 0-3.828 2.031-3.828 4.063 0 1.406.875 2.562 2.437 2.562.875 0 1.204-.172 1.875-.516zm0 0"/></symbol><symbol overflow="visible" id="G"><path d="M2.781-6.219h-.719L.734 0h.72zm0 0"/></symbol><symbol overflow="visible" id="b"><path d="M2.375-1v-5.438c0-.328-.078-.484-.484-.484h-.5c-.36 0-.485.11-.485.484v5.954c0 .359.11.484.485.484h3.453c.375 0 .484-.125.484-.484v-.079c0-.234-.016-.484-.469-.484zm0 0"/></symbol><symbol overflow="visible" id="Q"><path d="M5.344-6.219h-.719l-.578 2.625c-.266-.265-.734-.484-1.25-.484-1.094 0-2.11 1.328-2.11 2.672 0 .797.407 1.5 1.188 1.5.344 0 .922-.11 1.484-.563L3.266 0h.75zM3.53-1.234c-.047.14-.047.156-.14.265-.141.156-.5.485-.985.485-.5 0-.969-.313-.969-1.047 0-1 .688-1.969 1.688-1.969.375 0 .64.156.781.484zm0 0"/></symbol><symbol overflow="visible" id="R"><path d="M4.766-5.563c.609 0 1.218.016 1.828.016h.531l.14-.625H1.642l-.141.625h.547c.61 0 1.25-.016 1.86-.016L2.718 0h.86zm0 0"/></symbol><symbol overflow="visible" id="S"><path d="M7.156-2.719a1.66 1.66 0 00.063-.453c0-.36-.094-.906-1.047-.906-.766 0-1.328.516-1.531.734-.063-.547-.485-.734-1.016-.734-.75 0-1.234.453-1.484.672l.14-.625h-.687L.719 0h.75l.437-2.031c.203-.953.61-1.469 1.219-1.469.672 0 .75.328.75.594 0 .11-.016.172-.031.234L3.28 0h.75l.422-2.031c.203-.953.625-1.469 1.234-1.469.672 0 .75.328.75.594 0 .11-.015.172-.03.234L5.843 0h.734zm0 0"/></symbol><symbol overflow="visible" id="T"><path d="M4.875-3.984h-.75l-.563 2.656c-.078.39-.5.89-1.28.89-.485 0-.626-.093-.626-.343 0-.063.016-.156.016-.172l.64-3.031h-.75l-.64 3.03a3.329 3.329 0 00-.047.391c0 .657.578.657.781.657.36 0 1.11-.078 1.75-.516L3.312 0h.72zm0 0"/></symbol><symbol overflow="visible" id="U"><path d="M2.344-3.422H3.64l.125-.562H2.469l.234-1.141h-.656l-.25 1.14h-.781l-.125.563h.765c-.093.438-.328 1.563-.453 2.11-.062.328-.094.484-.094.687 0 .688.375.719.579.719.28 0 .812-.047 1.437-.328l-.047-.563c-.36.235-.687.281-.875.281-.297 0-.344-.203-.344-.437 0-.094 0-.14.032-.25zm0 0"/></symbol><symbol overflow="visible" id="X"><path d="M4.813-6.219h-.829L.266 0h.703L2.03-1.781h2.672L5 0h.89zm-.641.657l.422 3.25H2.359zm0 0"/></symbol><symbol overflow="visible" id="Y"><path d="M4.578-3.734c0-.016-.297-.204-.531-.282-.203-.078-.453-.125-.813-.125-1.421 0-2.53 1.375-2.53 2.61 0 .937.624 1.625 1.609 1.625.75 0 1.28-.266 1.578-.422.062-.313.062-.328.093-.64-.328.187-.843.452-1.53.452-.782 0-1.017-.609-1.017-1.078 0-.734.532-1.937 1.672-1.937.5 0 .797.094 1.22.422zm0 0"/></symbol><symbol overflow="visible" id="ae"><path d="M2.375-3.422h.984l.125-.562h-1.03l.233-1.094c.094-.422.516-.656.985-.656.094 0 .39 0 .703.14l.14-.625c-.343-.11-.624-.11-.718-.11-.875 0-1.656.673-1.844 1.532l-.187.813h-.672l-.11.562h.672L.922 0h.719zm0 0"/></symbol><symbol overflow="visible" id="af"><path d="M3.89-4.078c-.937.016-1.484.531-1.796.844l.172-.797h-.657L.75 0h.719c.265-1.266.422-2.016.437-2.094.235-.734.985-1.328 1.828-1.344zm0 0"/></symbol><symbol overflow="visible" id="ag"><path d="M7-3.984h-.688l-.765 1.453C5.03-1.5 4.657-.797 4.563-.5c0-.016.015-.188.015-.203 0-.297-.047-.766-.062-1.063l-.22-2.218h-.671c-.25.484-.516.968-.75 1.453-.469.906-.797 1.562-.953 1.984.016-.125.016-.203.016-.36 0-.718-.188-2.515-.25-3.077H.984L1.391 0h.75c.312-.61.609-1.172.78-1.484.5-1.016.798-1.594.923-1.97v.392c0 .171 0 .5.078 1.5.11 1.109.094.812.156 1.562h.813zm0 0"/></symbol><symbol overflow="visible" id="ah"><path d="M2.844-2.047l2.094-1.937h-.782L2.625-2.516l-.938-1.468H.891l1.328 1.937L0 0h.781l1.672-1.672 1 1.672h.797zm0 0"/></symbol><symbol overflow="visible" id="ai"><path d="M3.719-3.797C3.5-4 3.188-4.078 2.906-4.078c-.937 0-1.828.875-1.828 1.766 0 .046.031.359.156.593-.359.375-.437.75-.437 1 0 .14.031.297.094.438C.28.047.109.53.109.797c0 .547.688 1.047 1.797 1.047 1.016 0 2.328-.469 2.328-1.469 0-.656-.484-1.016-1.671-1.016H1.78c-.172 0-.437 0-.437-.359 0-.188.093-.344.156-.406.172.14.453.265.797.265.937 0 1.812-.89 1.812-1.78 0-.282-.109-.532-.14-.579h.015c.032.016.485-.016.563-.016.094 0 .406 0 .672.032 0-.188.015-.407.015-.594-.343 0-.906.047-1.484.281zm-1.313 2.11c-.39 0-.656-.22-.656-.641 0-.485.297-1.219 1.047-1.219.36 0 .656.203.656.656 0 .516-.328 1.204-1.047 1.204zM2.437.046c.438 0 1.11.062 1.11.515 0 .438-.75.75-1.531.75C1.28 1.313.78 1.047.78.72c0-.094.11-.672.844-.672zm0 0"/></symbol><symbol overflow="visible" id="aj"><path d="M3.906-6.734C1.312-4.781 1.016-1.61 1.016-.625c0 1.719.671 2.5 1 2.86h.578c-.25-.313-.86-1.063-.86-2.688 0-.25.016-4.047 2.766-6.281zm0 0"/></symbol><symbol overflow="visible" id="ak"><path d="M1.656-1.469c-.234.188-.828.672-1.078.86L.453 0h3.688l.14-.672H2.594c-.094 0-.203.016-.313.016h-.984c.89-.719 1.422-1.125 2.11-1.594.905-.64 1.655-1.234 1.655-2.313 0-.859-.578-1.5-1.593-1.5-1.016 0-1.688.641-2.094 1.438l.297.516c.484-1.094 1.031-1.344 1.531-1.344.594 0 1.063.344 1.063 1.031 0 .922-.782 1.547-1.36 2zm0 0"/></symbol><symbol overflow="visible" id="al"><path d="M3.469-4.297l.86.703s.03.016.124.016c.203 0 .406-.219.406-.406 0-.094-.046-.172-.187-.25l-.89-.5 1.14-.516c.078-.047.281-.14.281-.375 0-.14-.094-.266-.266-.266a.58.58 0 00-.234.063l-1.047.656.313-1.14C4-6.438 4-6.47 4-6.47a.254.254 0 00-.266-.265c-.062 0-.359.03-.421.406l-.157 1.156-.765-.625c-.11-.094-.157-.094-.22-.094-.233 0-.405.22-.405.407 0 .125.078.187.14.218l.922.532-1.125.515c-.203.078-.281.219-.281.375 0 .14.078.266.266.266.078 0 .109-.016.171-.047l1.11-.672-.313 1.11c-.031.124-.031.171-.031.187 0 .188.14.25.266.25.343 0 .39-.313.406-.422zm0 0"/></symbol><symbol overflow="visible" id="am"><path d="M8.453-6.219H7.375L5.437-3C4.391-1.281 4.25-.953 4.204-.875c0-.469-.234-1.703-.328-2.25l-.563-3.094H2.25L.922 0h.734l1.172-5.5h.016c-.016.156.015.375.11.984.062.422.124.844.202 1.266l.547 3.047h.688l1.921-3.172c1.094-1.797 1.204-2.063 1.235-2.14h.016L6.39 0h.734zm0 0"/></symbol><symbol overflow="visible" id="an"><path d="M3.047-6.219h-.875L.859 0h3.766l.14-.625h-.39c-.734 0-1.469.016-2.203.016h-.328zm0 0"/></symbol><symbol overflow="visible" id="ao"><path d="M1.938-6.734c.734.875.859 1.921.859 2.703 0 1.25-.453 4.468-2.766 6.265h.594c2.594-1.921 2.89-5.187 2.89-6.109 0-1.031-.265-2.094-1-2.86zm0 0"/></symbol><symbol overflow="visible" id="H"><path d="M2.188-3.766c-.454-.109-.907-.468-.907-.984s.485-1.031 1.297-1.031c.656 0 1.094.187 1.563.578l.14-.781c-.437-.22-.875-.438-1.687-.438-1.281 0-2.078.89-2.078 1.781 0 .235.046.594.343 1 .422.532 1 .672 1.36.766.125.031.687.172.765.188.407.124.86.515.86 1.078 0 .593-.516 1.14-1.313 1.14-.734 0-1.406-.281-1.969-.734l-.156.781c.89.547 1.703.625 2.125.625 1.235 0 2.063-.922 2.063-1.922 0-1-.828-1.672-1.5-1.828zm0 0"/></symbol><symbol overflow="visible" id="I"><path d="M6.125-6.219h-.844l-1.484 2.11-.625.937-.594-.86-1.531-2.187H.03L2.656-2.5V0H3.5v-2.5zm0 0"/></symbol><symbol overflow="visible" id="J"><path d="M2.516-5.344a5.006 5.006 0 00-.22-.422c-.046-.093-.187-.359-.233-.453H.875V0h.734v-5.531h.016l2.36 4.64c.078.141.187.36.234.422.047.11.172.375.234.469h1.172v-6.219h-.734v5.516zm0 0"/></symbol><symbol overflow="visible" id="K"><path d="M4.047-6.375a.51.51 0 00.047-.156.204.204 0 00-.188-.203c-.14 0-.187.109-.219.218L.563 1.891a.51.51 0 00-.047.156c0 .125.109.203.187.203.14 0 .172-.11.219-.219zm0 0"/></symbol><symbol overflow="visible" id="L"><path d="M3.781-2.047h2.547c.125 0 .313 0 .313-.203 0-.188-.172-.188-.313-.188H3.781V-5c0-.14 0-.313-.203-.313-.187 0-.187.188-.187.313v2.563H.828c-.125 0-.312 0-.312.187 0 .203.171.203.312.203h2.563V.516c0 .14 0 .312.203.312.187 0 .187-.187.187-.312zm0 0"/></symbol><symbol overflow="visible" id="M"><path d="M3.484-6.219h-.828L.266 0h.703l.687-1.781h2.657L5 0h.89zm-.5.657l1.11 3.25H1.859zm0 0"/></symbol><symbol overflow="visible" id="N"><path d="M5.375-.969c-.547.344-.86.563-1.719.563-1.375 0-2.203-1.344-2.203-2.703 0-1.438.89-2.704 2.172-2.704.594 0 1.063.157 1.547.485l.14-.781a4.603 4.603 0 00-1.687-.313C1.844-6.422.594-4.859.594-3.109.594-1.375 1.828.203 3.64.203c.812 0 1.156-.14 1.78-.516zm0 0"/></symbol><symbol overflow="visible" id="O"><path d="M3.422-3.766L5.89-6.219H5L1.687-2.922v-3.297H.875V0h.813v-2.047L2.89-3.234 5.125 0h.89zm0 0"/></symbol><symbol overflow="visible" id="V"><path d="M3.89-2.922c.922-.25 1.563-.89 1.563-1.625 0-.922-1.047-1.672-2.328-1.672H.875V0h.828v-2.828h1.438L4.844 0h.86zm-2.187-.484v-2.281h1.313c1.046 0 1.656.5 1.656 1.14 0 .578-.547 1.14-1.656 1.14zm0 0"/></symbol><symbol overflow="visible" id="W"><path d="M3.578-5.563c.61 0 1.235.016 1.844.016h.531v-.625H.328v.625h.547c.61 0 1.234-.016 1.844-.016V0h.86zm0 0"/></symbol><symbol overflow="visible" id="Z"><path d="M4.5-2.813v-.578H1.719v-2.203h.297c.703 0 1.421.032 2.125.032h.75v-.641H.859V0h.86v-2.813zm0 0"/></symbol><symbol overflow="visible" id="aa"><path d="M1.719-6.219h-.86V0h.86zm0 0"/></symbol><clipPath id="ab"><path d="M215 507h2v11.742h-2zm0 0"/></clipPath><clipPath id="ac"><path d="M0 517h217v1.742H0zm0 0"/></clipPath><clipPath id="ad"><path d="M0 28h2v490.742H0zm0 0"/></clipPath></defs><path d="M331.484 336.605v90.86h91.547v-90.86zm0 0" fill="none" stroke="#000" stroke-width=".399" stroke-linejoin="round" stroke-miterlimit="10" stroke-dasharray=".3985,1.99255"/><path d="M13.363 336.605v160.598H263.63V336.605zm0 0" fill="none" stroke="#000" stroke-width=".399" stroke-linejoin="round" stroke-miterlimit="10" stroke-dasharray=".3985,1.99255"/><path d="M183.328 68.207h69.738V38.32h-69.738zm0 0" fill="#fff" stroke="#000" stroke-width="1.196" stroke-miterlimit="10"/><g transform="translate(2.504 -.719)"><use height="100%" width="100%" y="57.442" x="195.145" xlink:href="#a"/><use height="100%" width="100%" y="57.442" x="202.147" xlink:href="#b"/><use height="100%" width="100%" y="57.442" x="207.931" xlink:href="#c"/><use height="100%" width="100%" y="57.442" x="215.846" xlink:href="#d"/><use height="100%" width="100%" y="57.442" x="221.934" xlink:href="#e"/><use height="100%" width="100%" y="57.442" x="228.327" xlink:href="#f"/></g><path d="M183.328 147.91h69.738v-29.89h-69.738zm0 0" fill="#fff" stroke="#000" stroke-width="1.196" stroke-miterlimit="10"/><g transform="translate(2.504 -.719)"><use height="100%" width="100%" y="137.143" x="197.304" xlink:href="#b"/><use height="100%" width="100%" y="137.143" x="203.088" xlink:href="#g"/><use height="100%" width="100%" y="137.143" x="206.382" xlink:href="#d"/><use height="100%" width="100%" y="137.143" x="212.47" xlink:href="#h"/><use height="100%" width="100%" y="137.143" x="219.776" xlink:href="#e"/><use height="100%" width="100%" y="137.143" x="226.169" xlink:href="#i"/></g><path d="M342.73 227.613h69.743v-29.89H342.73zm0 0" fill="#fff" stroke="#000" stroke-width="1.196" stroke-miterlimit="10"/><g transform="translate(2.504 -.719)"><use height="100%" width="100%" y="216.844" x="348.618" xlink:href="#d"/><use height="100%" width="100%" y="216.844" x="354.706" xlink:href="#j"/><use height="100%" width="100%" y="216.844" x="362.012" xlink:href="#i"/></g><path d="M373.09 215.926h3.285" fill="none" stroke="#000" stroke-width=".398" stroke-miterlimit="10"/><g transform="translate(2.504 -.719)"><use height="100%" width="100%" y="216.844" x="373.872" xlink:href="#d"/><use height="100%" width="100%" y="216.844" x="379.96" xlink:href="#e"/><use height="100%" width="100%" y="216.844" x="386.353" xlink:href="#i"/><use height="100%" width="100%" y="216.844" x="394.268" xlink:href="#h"/></g><path d="M23.922 227.613H93.66v-29.89H23.922zm0 0" fill="#fff" stroke="#000" stroke-width="1.196" stroke-miterlimit="10"/><g transform="translate(2.504 -.719)"><use height="100%" width="100%" y="216.844" x="29.052" xlink:href="#d"/><use height="100%" width="100%" y="216.844" x="35.14" xlink:href="#j"/><use height="100%" width="100%" y="216.844" x="42.446" xlink:href="#i"/></g><path d="M53.524 215.926h3.285" fill="none" stroke="#000" stroke-width=".398" stroke-miterlimit="10"/><g transform="translate(2.504 -.719)"><use height="100%" width="100%" y="216.844" x="54.306" xlink:href="#k"/><use height="100%" width="100%" y="216.844" x="61.308" xlink:href="#a"/><use height="100%" width="100%" y="216.844" x="68.309" xlink:href="#l"/><use height="100%" width="100%" y="216.844" x="75.615" xlink:href="#f"/></g><path d="M179.438 287.387h77.515V257.5h-77.515zm0 0" fill="#fff" stroke="#000" stroke-width="1.196" stroke-miterlimit="10"/><g transform="translate(2.504 -.719)"><use height="100%" width="100%" y="276.62" x="180.257" xlink:href="#e"/><use height="100%" width="100%" y="276.62" x="186.65" xlink:href="#d"/><use height="100%" width="100%" y="276.62" x="192.738" xlink:href="#h"/></g><g transform="translate(2.504 -.719)"><use height="100%" width="100%" y="276.62" x="199.127" xlink:href="#m"/><use height="100%" width="100%" y="276.62" x="206.433" xlink:href="#n"/><use height="100%" width="100%" y="276.62" x="213.738" xlink:href="#b"/><use height="100%" width="100%" y="276.62" x="219.523" xlink:href="#g"/><use height="100%" width="100%" y="276.62" x="222.816" xlink:href="#d"/><use height="100%" width="100%" y="276.62" x="228.904" xlink:href="#o"/><use height="100%" width="100%" y="276.62" x="236.82" xlink:href="#e"/><use height="100%" width="100%" y="276.62" x="243.213" xlink:href="#f"/></g><path d="M23.922 357.129H93.66v-29.89H23.922zm0 0" fill="#fff" stroke="#000" stroke-width="1.196" stroke-miterlimit="10"/><g transform="translate(2.504 -.719)"><use height="100%" width="100%" y="346.359" x="27.287" xlink:href="#p"/><use height="100%" width="100%" y="346.359" x="33.375" xlink:href="#g"/><use height="100%" width="100%" y="346.359" x="36.669" xlink:href="#i"/></g><path d="M47.746 345.441h3.285" fill="none" stroke="#000" stroke-width=".398" stroke-miterlimit="10"/><use height="100%" width="100%" y="346.359" x="48.528" xlink:href="#q" transform="translate(2.504 -.719)"/><g transform="translate(2.504 -.719)"><use height="100%" width="100%" y="346.359" x="57.962" xlink:href="#m"/><use height="100%" width="100%" y="346.359" x="65.267" xlink:href="#g"/><use height="100%" width="100%" y="346.359" x="68.561" xlink:href="#h"/></g><path d="M79.031 345.441h3.29" fill="none" stroke="#000" stroke-width=".398" stroke-miterlimit="10"/><use height="100%" width="100%" y="346.359" x="79.816" xlink:href="#r" transform="translate(2.504 -.719)"/><path d="M23.922 436.832H93.66v-29.89H23.922zm0 0" fill="#fff" stroke="#000" stroke-width="1.196" stroke-miterlimit="10"/><g transform="translate(2.504 -.719)"><use height="100%" width="100%" y="426.06" x="27.287" xlink:href="#p"/><use height="100%" width="100%" y="426.06" x="33.375" xlink:href="#g"/><use height="100%" width="100%" y="426.06" x="36.669" xlink:href="#i"/></g><path d="M47.746 425.14h3.285" fill="none" stroke="#000" stroke-width=".398" stroke-miterlimit="10"/><use height="100%" width="100%" y="426.06" x="48.528" xlink:href="#q" transform="translate(2.504 -.719)"/><g transform="translate(2.504 -.719)"><use height="100%" width="100%" y="426.06" x="57.962" xlink:href="#m"/><use height="100%" width="100%" y="426.06" x="65.267" xlink:href="#g"/><use height="100%" width="100%" y="426.06" x="68.561" xlink:href="#h"/></g><path d="M79.031 425.14h3.29" fill="none" stroke="#000" stroke-width=".398" stroke-miterlimit="10"/><use height="100%" width="100%" y="426.06" x="79.816" xlink:href="#s" transform="translate(2.504 -.719)"/><path d="M342.047 357.129h71.11v-29.89h-71.11zm0 0" fill="#fff" stroke="#000" stroke-width="1.196" stroke-miterlimit="10"/><g transform="translate(2.504 -.719)"><use height="100%" width="100%" y="346.359" x="342.862" xlink:href="#a"/><use height="100%" width="100%" y="346.359" x="349.864" xlink:href="#b"/><use height="100%" width="100%" y="346.359" x="355.648" xlink:href="#c"/><use height="100%" width="100%" y="346.359" x="363.563" xlink:href="#d"/><use height="100%" width="100%" y="346.359" x="369.651" xlink:href="#e"/></g><path d="M379.203 345.441h3.29" fill="none" stroke="#000" stroke-width=".398" stroke-miterlimit="10"/><use height="100%" width="100%" y="346.359" x="379.988" xlink:href="#q" transform="translate(2.504 -.719)"/><g transform="translate(2.504 -.719)"><use height="100%" width="100%" y="346.359" x="389.422" xlink:href="#m"/><use height="100%" width="100%" y="346.359" x="396.727" xlink:href="#g"/><use height="100%" width="100%" y="346.359" x="400.021" xlink:href="#h"/></g><path d="M183.328 426.867h69.738V396.98h-69.738zm0 0" fill="#fff" stroke="#000" stroke-width="1.196" stroke-miterlimit="10"/><g transform="translate(2.504 -.719)"><use height="100%" width="100%" y="416.097" x="193.042" xlink:href="#a"/><use height="100%" width="100%" y="416.097" x="200.044" xlink:href="#b"/><use height="100%" width="100%" y="416.097" x="205.828" xlink:href="#c"/><use height="100%" width="100%" y="416.097" x="213.743" xlink:href="#d"/><use height="100%" width="100%" y="416.097" x="219.831" xlink:href="#g"/><use height="100%" width="100%" y="416.097" x="223.125" xlink:href="#i"/><use height="100%" width="100%" y="416.097" x="231.04" xlink:href="#t"/></g><path d="M342.73 436.832h69.743v-29.89H342.73zm0 0" fill="#fff" stroke="#000" stroke-width="1.196" stroke-miterlimit="10"/><g transform="translate(2.504 -.719)"><use height="100%" width="100%" y="426.06" x="349.074" xlink:href="#b"/><use height="100%" width="100%" y="426.06" x="354.858" xlink:href="#m"/><use height="100%" width="100%" y="426.06" x="362.164" xlink:href="#d"/><use height="100%" width="100%" y="426.06" x="368.252" xlink:href="#h"/></g><path d="M378.719 425.14h3.289" fill="none" stroke="#000" stroke-width=".398" stroke-miterlimit="10"/><use height="100%" width="100%" y="426.06" x="379.504" xlink:href="#m" transform="translate(2.504 -.719)"/><g transform="translate(2.504 -.719)"><use height="100%" width="100%" y="426.06" x="386.501" xlink:href="#a"/><use height="100%" width="100%" y="426.06" x="393.502" xlink:href="#u"/></g><path d="M183.328 506.57h69.738v-29.89h-69.738zm0 0" fill="#fff" stroke="#000" stroke-width="1.196" stroke-miterlimit="10"/><g transform="translate(2.504 -.719)"><use height="100%" width="100%" y="495.798" x="186.683" xlink:href="#h"/><use height="100%" width="100%" y="495.798" x="193.989" xlink:href="#g"/><use height="100%" width="100%" y="495.798" x="197.282" xlink:href="#v"/><use height="100%" width="100%" y="495.798" x="207.024" xlink:href="#e"/></g><path d="M216.578 494.879h3.29" fill="none" stroke="#000" stroke-width=".398" stroke-miterlimit="10"/><use height="100%" width="100%" y="495.798" x="217.361" xlink:href="#q" transform="translate(2.504 -.719)"/><g transform="translate(2.504 -.719)"><use height="100%" width="100%" y="495.798" x="226.795" xlink:href="#m"/><use height="100%" width="100%" y="495.798" x="234.1" xlink:href="#g"/><use height="100%" width="100%" y="495.798" x="237.394" xlink:href="#h"/></g><path d="M213.215 68.805v43.957" fill="none" stroke="#000" stroke-width=".797" stroke-miterlimit="10"/><path d="M213.215 117.422c.258-1.38 1.035-3.625 1.945-5.18h-3.886c.906 1.555 1.683 3.8 1.94 5.18"/><use height="100%" width="100%" y="96.075" x="156.13" xlink:href="#w" transform="translate(2.504 -.719)"/><g transform="translate(2.504 -.719)"><use height="100%" width="100%" y="96.075" x="161.764" xlink:href="#x"/><use height="100%" width="100%" y="96.075" x="166.192" xlink:href="#y"/><use height="100%" width="100%" y="96.075" x="169.725" xlink:href="#y"/><use height="100%" width="100%" y="96.075" x="173.258" xlink:href="#z"/><use height="100%" width="100%" y="96.075" x="175.458" xlink:href="#A"/><use height="100%" width="100%" y="96.075" x="179.706" xlink:href="#B"/></g><g transform="translate(2.504 -.719)"><use height="100%" width="100%" y="96.075" x="186.878" xlink:href="#C"/><use height="100%" width="100%" y="96.075" x="191.485" xlink:href="#D"/></g><g transform="translate(2.504 -.719)"><use height="100%" width="100%" y="96.075" x="196.497" xlink:href="#B"/><use height="100%" width="100%" y="96.075" x="200.593" xlink:href="#E"/></g><path d="M223.18 117.422V73.469" fill="none" stroke="#000" stroke-width=".797" stroke-miterlimit="10"/><path d="M223.18 68.805c-.262 1.382-1.04 3.625-1.946 5.18h3.887c-.906-1.555-1.683-3.798-1.941-5.18"/><g transform="translate(2.504 -.719)"><use height="100%" width="100%" y="96.946" x="230.127" xlink:href="#F"/><use height="100%" width="100%" y="96.946" x="236.014" xlink:href="#G"/><use height="100%" width="100%" y="96.946" x="238.215" xlink:href="#C"/><use height="100%" width="100%" y="96.946" x="242.823" xlink:href="#y"/><use height="100%" width="100%" y="96.946" x="246.355" xlink:href="#B"/></g><path d="M208.234 148.508c-33.058 36.629-64.722 51.242-109.316 53.918" fill="none" stroke="#000" stroke-width=".797" stroke-miterlimit="10"/><path d="M94.262 202.703c1.394.18 3.683.82 5.289 1.633l-.235-3.883c-1.496 1-3.69 1.91-5.054 2.25"/><g transform="translate(2.504 -.719)"><use height="100%" width="100%" y="181.23" x="99.037" xlink:href="#H"/><use height="100%" width="100%" y="181.23" x="104.157" xlink:href="#I"/><use height="100%" width="100%" y="181.23" x="110.314" xlink:href="#J"/><use height="100%" width="100%" y="181.23" x="116.831" xlink:href="#K"/><use height="100%" width="100%" y="181.23" x="121.439" xlink:href="#H"/><use height="100%" width="100%" y="181.23" x="126.558" xlink:href="#I"/><use height="100%" width="100%" y="181.23" x="132.716" xlink:href="#J"/></g><use height="100%" width="100%" y="181.23" x="142.308" xlink:href="#L" transform="translate(2.504 -.719)"/><use height="100%" width="100%" y="181.23" x="152.542" xlink:href="#M" transform="translate(2.504 -.719)"/><g transform="translate(2.504 -.719)"><use height="100%" width="100%" y="181.23" x="158.448" xlink:href="#N"/><use height="100%" width="100%" y="181.23" x="164.336" xlink:href="#O"/></g><path d="M228.16 148.508c33.375 36.34 64.719 51.242 109.317 53.918" fill="none" stroke="#000" stroke-width=".797" stroke-miterlimit="10"/><path d="M342.133 202.703c-1.363-.34-3.559-1.25-5.055-2.25l-.234 3.883c1.605-.813 3.894-1.453 5.289-1.633"/><g transform="translate(2.504 -.719)"><use height="100%" width="100%" y="181.122" x="265.656" xlink:href="#P"/><use height="100%" width="100%" y="181.122" x="270.776" xlink:href="#B"/><use height="100%" width="100%" y="181.122" x="274.872" xlink:href="#E"/><use height="100%" width="100%" y="181.122" x="279.632" xlink:href="#Q"/></g><g transform="translate(2.504 -.719)"><use height="100%" width="100%" y="181.122" x="285.245" xlink:href="#K"/><use height="100%" width="100%" y="181.122" x="289.853" xlink:href="#H"/><use height="100%" width="100%" y="181.122" x="294.973" xlink:href="#I"/><use height="100%" width="100%" y="181.122" x="301.13" xlink:href="#J"/></g><path d="M63.773 197.125c-5.515-71.399 47.56-133.363 114.305-138.52" fill="none" stroke="#000" stroke-width=".797" stroke-miterlimit="10"/><path d="M182.73 58.246c-1.398-.152-3.699-.754-5.32-1.54l.301 3.876c1.48-1.024 3.66-1.973 5.02-2.336"/><g transform="translate(2.504 -.719)"><use height="100%" width="100%" y="105.94" x="24.435" xlink:href="#R"/><use height="100%" width="100%" y="105.94" x="30.731" xlink:href="#z"/><use height="100%" width="100%" y="105.94" x="32.932" xlink:href="#S"/><use height="100%" width="100%" y="105.94" x="40.251" xlink:href="#B"/><use height="100%" width="100%" y="105.94" x="44.347" xlink:href="#C"/><use height="100%" width="100%" y="105.94" x="48.955" xlink:href="#T"/><use height="100%" width="100%" y="105.94" x="53.715" xlink:href="#U"/></g><g transform="translate(2.504 -.719)"><use height="100%" width="100%" y="105.94" x="57.684" xlink:href="#K"/><use height="100%" width="100%" y="105.94" x="62.292" xlink:href="#V"/><use height="100%" width="100%" y="105.94" x="68.263" xlink:href="#H"/><use height="100%" width="100%" y="105.94" x="73.382" xlink:href="#W"/></g><path d="M372.621 197.125c5.516-71.399-47.558-133.363-114.305-138.52" fill="none" stroke="#000" stroke-width=".797" stroke-miterlimit="10"/><path d="M253.664 58.246c1.36.363 3.54 1.312 5.02 2.336l.297-3.875c-1.618.785-3.918 1.387-5.317 1.539"/><g transform="translate(2.504 -.719)"><use height="100%" width="100%" y="116.774" x="319.044" xlink:href="#F"/><use height="100%" width="100%" y="116.774" x="324.931" xlink:href="#G"/><use height="100%" width="100%" y="116.774" x="327.132" xlink:href="#C"/><use height="100%" width="100%" y="116.774" x="331.74" xlink:href="#y"/><use height="100%" width="100%" y="116.774" x="335.272" xlink:href="#B"/></g><path d="M253.664 48.281c76.93 5.52 134.438 71.914 129.254 144.195" fill="none" stroke="#000" stroke-width=".797" stroke-miterlimit="10"/><path d="M382.582 197.125c.36-1.36 1.293-3.543 2.309-5.027l-3.875-.278c.793 1.613 1.406 3.91 1.566 5.305"/><g transform="translate(2.504 -.719)"><use height="100%" width="100%" y="98.886" x="352.267" xlink:href="#X"/><use height="100%" width="100%" y="98.886" x="358.424" xlink:href="#Y"/><use height="100%" width="100%" y="98.886" x="362.52" xlink:href="#U"/><use height="100%" width="100%" y="98.886" x="365.848" xlink:href="#z"/><use height="100%" width="100%" y="98.886" x="368.048" xlink:href="#A"/><use height="100%" width="100%" y="98.886" x="372.296" xlink:href="#B"/></g><g transform="translate(2.504 -.719)"><use height="100%" width="100%" y="98.886" x="379.467" xlink:href="#C"/><use height="100%" width="100%" y="98.886" x="384.075" xlink:href="#D"/></g><g transform="translate(2.504 -.719)"><use height="100%" width="100%" y="98.886" x="389.087" xlink:href="#B"/><use height="100%" width="100%" y="98.886" x="393.182" xlink:href="#E"/></g><g transform="translate(2.504 -.719)"><use height="100%" width="100%" y="98.886" x="398.105" xlink:href="#K"/><use height="100%" width="100%" y="98.886" x="402.713" xlink:href="#H"/><use height="100%" width="100%" y="98.886" x="407.833" xlink:href="#I"/><use height="100%" width="100%" y="98.886" x="413.99" xlink:href="#J"/></g><path d="M342.133 212.668H98.922" fill="none" stroke="#000" stroke-width=".797" stroke-miterlimit="10"/><path d="M94.262 212.668c1.379.258 3.625 1.035 5.18 1.941v-3.883c-1.555.907-3.801 1.684-5.18 1.942"/><g transform="translate(2.504 -.719)"><use height="100%" width="100%" y="205.664" x="179.838" xlink:href="#H"/><use height="100%" width="100%" y="205.664" x="184.958" xlink:href="#I"/><use height="100%" width="100%" y="205.664" x="191.115" xlink:href="#J"/><use height="100%" width="100%" y="205.664" x="197.632" xlink:href="#K"/><use height="100%" width="100%" y="205.664" x="202.24" xlink:href="#H"/><use height="100%" width="100%" y="205.664" x="207.359" xlink:href="#I"/><use height="100%" width="100%" y="205.664" x="213.517" xlink:href="#J"/></g><use height="100%" width="100%" y="205.664" x="223.109" xlink:href="#L" transform="translate(2.504 -.719)"/><use height="100%" width="100%" y="205.664" x="233.343" xlink:href="#M" transform="translate(2.504 -.719)"/><g transform="translate(2.504 -.719)"><use height="100%" width="100%" y="205.664" x="239.249" xlink:href="#N"/><use height="100%" width="100%" y="205.664" x="245.137" xlink:href="#O"/></g><path d="M58.793 228.21v93.77" fill="none" stroke="#000" stroke-width=".797" stroke-miterlimit="10"/><path d="M58.793 326.64c.258-1.378 1.035-3.625 1.941-5.18h-3.882c.906 1.555 1.683 3.802 1.941 5.18"/><g transform="translate(2.504 -.719)"><use height="100%" width="100%" y="280.384" x="11.423" xlink:href="#F"/><use height="100%" width="100%" y="280.384" x="17.31" xlink:href="#G"/><use height="100%" width="100%" y="280.384" x="19.511" xlink:href="#C"/><use height="100%" width="100%" y="280.384" x="24.119" xlink:href="#y"/><use height="100%" width="100%" y="280.384" x="27.651" xlink:href="#B"/></g><g transform="translate(2.504 -.719)"><use height="100%" width="100%" y="280.384" x="32.368" xlink:href="#K"/><use height="100%" width="100%" y="280.384" x="36.976" xlink:href="#Z"/><use height="100%" width="100%" y="280.384" x="42.254" xlink:href="#aa"/><use height="100%" width="100%" y="280.384" x="44.828" xlink:href="#J"/></g><path d="M94.262 222.629c46.203-4.664 77.746 5.215 110.332 31.351" fill="none" stroke="#000" stroke-width=".797" stroke-miterlimit="10"/><path d="M208.234 256.902c-.918-1.066-2.183-3.082-2.828-4.761l-2.433 3.035c1.781.265 4.02 1.062 5.261 1.726"/><use height="100%" width="100%" y="240.913" x="133.422" xlink:href="#M" transform="translate(2.504 -.719)"/><g transform="translate(2.504 -.719)"><use height="100%" width="100%" y="240.913" x="139.328" xlink:href="#N"/><use height="100%" width="100%" y="240.913" x="145.215" xlink:href="#O"/></g><path d="M342.133 222.629c-46.246-4.258-77.746 5.215-110.332 31.351" fill="none" stroke="#000" stroke-width=".797" stroke-miterlimit="10"/><path d="M228.16 256.902c1.242-.664 3.48-1.46 5.262-1.726l-2.434-3.035c-.644 1.68-1.91 3.695-2.828 4.761"/><g transform="translate(2.504 -.719)"><use height="100%" width="100%" y="240.192" x="272.714" xlink:href="#H"/><use height="100%" width="100%" y="240.192" x="277.834" xlink:href="#I"/><use height="100%" width="100%" y="240.192" x="283.991" xlink:href="#J"/></g><use height="100%" width="100%" y="240.192" x="293.583" xlink:href="#L" transform="translate(2.504 -.719)"/><use height="100%" width="100%" y="240.192" x="303.818" xlink:href="#M" transform="translate(2.504 -.719)"/><g transform="translate(2.504 -.719)"><use height="100%" width="100%" y="240.192" x="309.724" xlink:href="#N"/><use height="100%" width="100%" y="240.192" x="315.611" xlink:href="#O"/><use height="100%" width="100%" y="240.192" x="322.025" xlink:href="#K"/><use height="100%" width="100%" y="240.192" x="326.633" xlink:href="#M"/></g><g transform="translate(2.504 -.719)"><use height="100%" width="100%" y="240.192" x="332.53" xlink:href="#N"/><use height="100%" width="100%" y="240.192" x="338.417" xlink:href="#O"/></g><path d="M208.234 287.988c-33.73 34.75-65.554 48.07-109.312 49.106" fill="none" stroke="#000" stroke-width=".797" stroke-miterlimit="10"/><path d="M94.262 337.203c1.387.227 3.648.95 5.222 1.82l-.09-3.886c-1.535.945-3.757 1.773-5.132 2.066"/><g transform="translate(2.504 -.719)"><use height="100%" width="100%" y="318.192" x="124.328" xlink:href="#F"/><use height="100%" width="100%" y="318.192" x="130.215" xlink:href="#G"/><use height="100%" width="100%" y="318.192" x="132.416" xlink:href="#C"/><use height="100%" width="100%" y="318.192" x="137.024" xlink:href="#y"/><use height="100%" width="100%" y="318.192" x="140.556" xlink:href="#B"/></g><g transform="translate(2.504 -.719)"><use height="100%" width="100%" y="318.192" x="145.274" xlink:href="#K"/><use height="100%" width="100%" y="318.192" x="149.882" xlink:href="#Z"/><use height="100%" width="100%" y="318.192" x="155.16" xlink:href="#aa"/><use height="100%" width="100%" y="318.192" x="157.734" xlink:href="#J"/></g><path d="M228.16 287.988c34.563 32.602 65.778 44.79 108.625 44.29" fill="none" stroke="#000" stroke-width=".797" stroke-miterlimit="10"/><path d="M341.45 332.223c-1.387-.247-3.641-.997-5.204-1.883l.043 3.883c1.547-.922 3.781-1.727 5.16-2"/><g transform="translate(2.504 -.719)"><use height="100%" width="100%" y="315.533" x="268.817" xlink:href="#Z"/><use height="100%" width="100%" y="315.533" x="274.096" xlink:href="#aa"/><use height="100%" width="100%" y="315.533" x="276.669" xlink:href="#J"/><use height="100%" width="100%" y="315.533" x="283.186" xlink:href="#K"/><use height="100%" width="100%" y="315.533" x="287.793" xlink:href="#M"/></g><g transform="translate(2.504 -.719)"><use height="100%" width="100%" y="315.533" x="293.7" xlink:href="#N"/><use height="100%" width="100%" y="315.533" x="299.587" xlink:href="#O"/></g><path d="M58.793 357.726v43.957" fill="none" stroke="#000" stroke-width=".797" stroke-miterlimit="10"/><path d="M58.793 406.344c.258-1.383 1.035-3.625 1.941-5.18h-3.882c.906 1.555 1.683 3.797 1.941 5.18"/><use height="100%" width="100%" y="385.863" x="27.264" xlink:href="#M" transform="translate(2.504 -.719)"/><use height="100%" width="100%" y="385.863" x="33.161" xlink:href="#N" transform="translate(2.504 -.719)"/><use height="100%" width="100%" y="385.863" x="39.058" xlink:href="#O" transform="translate(2.504 -.719)"/><path d="M94.262 347.164c52.09-.762 86.242 13.25 120.554 45.992" fill="none" stroke="#000" stroke-width=".797" stroke-miterlimit="10"/><path d="M218.195 396.383c-.82-1.145-1.91-3.262-2.41-4.992l-2.687 2.816c1.754.418 3.918 1.406 5.097 2.176"/><path d="M94.262 357.726l85.668 114.61" fill="none" stroke="#000" stroke-width=".797" stroke-miterlimit="10"/><path d="M182.73 476.082c-.62-1.266-1.347-3.535-1.55-5.328l-3.125 2.332c1.664.707 3.636 2.043 4.676 2.996"/><g transform="translate(2.504 -.719)"><use height="100%" width="100%" y="394.207" x="132.529" xlink:href="#Z"/><use height="100%" width="100%" y="394.207" x="137.808" xlink:href="#aa"/><use height="100%" width="100%" y="394.207" x="140.381" xlink:href="#J"/></g><use height="100%" width="100%" y="394.207" x="149.973" xlink:href="#L" transform="translate(2.504 -.719)"/><use height="100%" width="100%" y="405.166" x="131.011" xlink:href="#M" transform="translate(2.504 -.719)"/><g transform="translate(2.504 -.719)"><use height="100%" width="100%" y="405.166" x="136.908" xlink:href="#N"/><use height="100%" width="100%" y="405.166" x="142.796" xlink:href="#O"/><use height="100%" width="100%" y="405.166" x="149.209" xlink:href="#K"/><use height="100%" width="100%" y="405.166" x="153.817" xlink:href="#M"/></g><g transform="translate(2.504 -.719)"><use height="100%" width="100%" y="405.166" x="159.723" xlink:href="#N"/><use height="100%" width="100%" y="405.166" x="165.611" xlink:href="#O"/></g><path d="M58.793 437.43c36.91 37.714 71.184 52.703 119.273 54.062" fill="none" stroke="#000" stroke-width=".797" stroke-miterlimit="10"/><path d="M182.73 491.625c-1.374-.297-3.597-1.137-5.124-2.09l-.11 3.887c1.578-.864 3.844-1.578 5.235-1.797"/><g id="ap" transform="translate(2.504 -.719)" fill="#000" fill-opacity="1"><use height="100%" width="100%" y="491.029" x="73.803" xlink:href="#Z"/><use height="100%" width="100%" y="491.029" x="79.082" xlink:href="#aa"/><use height="100%" width="100%" y="491.029" x="81.655" xlink:href="#J"/><use height="100%" width="100%" y="491.029" x="88.172" xlink:href="#K"/><use height="100%" width="100%" y="491.029" x="92.779" xlink:href="#M"/></g><g id="aq" transform="translate(2.504 -.719)" fill="#000" fill-opacity="1"><use height="100%" width="100%" y="491.029" x="98.686" xlink:href="#N"/><use height="100%" width="100%" y="491.029" x="104.573" xlink:href="#O"/></g><path d="M218.195 427.465v43.957" fill="none" stroke="#000" stroke-width=".797" stroke-miterlimit="10"/><path d="M218.195 476.082c.262-1.379 1.04-3.625 1.946-5.18h-3.887c.906 1.555 1.684 3.801 1.941 5.18"/><use height="100%" width="100%" y="455.602" x="186.667" xlink:href="#M" transform="translate(2.504 -.719)"/><g transform="translate(2.504 -.719)"><use height="100%" width="100%" y="455.602" x="192.564" xlink:href="#N"/><use height="100%" width="100%" y="455.602" x="198.452" xlink:href="#O"/></g><path d="M377.602 357.726v43.957" fill="none" stroke="#000" stroke-width=".797" stroke-miterlimit="10"/><path d="M377.602 406.344c.257-1.383 1.035-3.625 1.941-5.18h-3.883c.906 1.555 1.684 3.797 1.942 5.18"/><g transform="translate(2.504 -.719)"><use height="100%" width="100%" y="384.991" x="380.041" xlink:href="#F"/><use height="100%" width="100%" y="384.991" x="385.928" xlink:href="#G"/><use height="100%" width="100%" y="384.991" x="388.129" xlink:href="#C"/><use height="100%" width="100%" y="384.991" x="392.737" xlink:href="#y"/><use height="100%" width="100%" y="384.991" x="396.269" xlink:href="#B"/></g><g transform="translate(2.504 -.719)"><use height="100%" width="100%" y="384.991" x="400.987" xlink:href="#K"/><use height="100%" width="100%" y="384.991" x="405.595" xlink:href="#Z"/><use height="100%" width="100%" y="384.991" x="410.873" xlink:href="#aa"/><use height="100%" width="100%" y="384.991" x="413.447" xlink:href="#J"/></g><path d="M413.07 421.887h19.926" fill="none" stroke="#000" stroke-width=".797" stroke-miterlimit="10"/><path d="M432.996 421.887V27.757" fill="none" stroke="#000" stroke-width=".797" stroke-miterlimit="10"/><use height="100%" width="100%" y="268.503" x="406.443" xlink:href="#M" transform="translate(2.504 -.719)"/><g transform="translate(2.504 -.719)"><use height="100%" width="100%" y="268.503" x="412.34" xlink:href="#N"/><use height="100%" width="100%" y="268.503" x="418.228" xlink:href="#O"/></g><path d="M432.996 27.758H223.18" fill="none" stroke="#000" stroke-width=".797" stroke-miterlimit="10"/><path d="M223.18 27.758v5.3" fill="none" stroke="#000" stroke-width=".797" stroke-miterlimit="10"/><path d="M223.18 37.723c.258-1.383 1.035-3.63 1.941-5.184h-3.887c.907 1.555 1.684 3.8 1.946 5.184"/><g clip-path="url(#ab)" transform="translate(2.504 -.719)"><path d="M215.691 507.887v9.96" fill="none" stroke="#000" stroke-width=".797" stroke-miterlimit="10"/></g><g clip-path="url(#ac)" transform="translate(2.504 -.719)"><path d="M215.691 517.848H.895" fill="none" stroke="#000" stroke-width=".797" stroke-miterlimit="10"/></g><g clip-path="url(#ad)" transform="translate(2.504 -.719)"><path d="M.895 517.848V28.477" fill="none" stroke="#000" stroke-width=".797" stroke-miterlimit="10"/></g><path d="M3.398 27.758h209.817" fill="none" stroke="#000" stroke-width=".797" stroke-miterlimit="10"/><g transform="translate(2.504 -.719)"><use height="100%" width="100%" y="10.047" x="45.753" xlink:href="#R"/><use height="100%" width="100%" y="10.047" x="52.049" xlink:href="#z"/><use height="100%" width="100%" y="10.047" x="54.25" xlink:href="#S"/><use height="100%" width="100%" y="10.047" x="61.569" xlink:href="#B"/><use height="100%" width="100%" y="10.047" x="65.665" xlink:href="#C"/><use height="100%" width="100%" y="10.047" x="70.273" xlink:href="#T"/><use height="100%" width="100%" y="10.047" x="75.033" xlink:href="#U"/></g><g transform="translate(2.504 -.719)"><use height="100%" width="100%" y="10.047" x="81.436" xlink:href="#x"/><use height="100%" width="100%" y="10.047" x="85.863" xlink:href="#ae"/><use height="100%" width="100%" y="10.047" x="88.679" xlink:href="#U"/><use height="100%" width="100%" y="10.047" x="92.006" xlink:href="#B"/><use height="100%" width="100%" y="10.047" x="96.102" xlink:href="#af"/></g><use height="100%" width="100%" y="10.047" x="102.317" xlink:href="#U" transform="translate(2.504 -.719)"/><use height="100%" width="100%" y="10.047" x="105.393" xlink:href="#ag" transform="translate(2.504 -.719)"/><use height="100%" width="100%" y="10.047" x="111.429" xlink:href="#C" transform="translate(2.504 -.719)"/><g transform="translate(2.504 -.719)"><use height="100%" width="100%" y="10.047" x="119.112" xlink:href="#S"/><use height="100%" width="100%" y="10.047" x="126.432" xlink:href="#x"/><use height="100%" width="100%" y="10.047" x="130.859" xlink:href="#ah"/><use height="100%" width="100%" y="10.047" x="135.108" xlink:href="#z"/><use height="100%" width="100%" y="10.047" x="137.308" xlink:href="#S"/><use height="100%" width="100%" y="10.047" x="144.627" xlink:href="#T"/><use height="100%" width="100%" y="10.047" x="149.388" xlink:href="#S"/></g><g transform="translate(2.504 -.719)"><use height="100%" width="100%" y="21.006" x="48.994" xlink:href="#y"/><use height="100%" width="100%" y="21.006" x="52.527" xlink:href="#B"/><use height="100%" width="100%" y="21.006" x="56.623" xlink:href="#ai"/><use height="100%" width="100%" y="21.006" x="61.23" xlink:href="#S"/><use height="100%" width="100%" y="21.006" x="68.55" xlink:href="#B"/><use height="100%" width="100%" y="21.006" x="72.646" xlink:href="#E"/><use height="100%" width="100%" y="21.006" x="77.406" xlink:href="#U"/></g><g transform="translate(2.504 -.719)"><use height="100%" width="100%" y="21.006" x="83.809" xlink:href="#G"/><use height="100%" width="100%" y="21.006" x="86.009" xlink:href="#z"/></g><use height="100%" width="100%" y="21.006" x="88.2" xlink:href="#ae" transform="translate(2.504 -.719)"/><use height="100%" width="100%" y="21.006" x="91.025" xlink:href="#B" transform="translate(2.504 -.719)"/><use height="100%" width="100%" y="21.006" x="95.112" xlink:href="#U" transform="translate(2.504 -.719)"/><use height="100%" width="100%" y="21.006" x="98.448" xlink:href="#z" transform="translate(2.504 -.719)"/><use height="100%" width="100%" y="21.006" x="100.64" xlink:href="#S" transform="translate(2.504 -.719)"/><g transform="translate(2.504 -.719)"><use height="100%" width="100%" y="21.006" x="107.968" xlink:href="#B"/><use height="100%" width="100%" y="21.006" x="112.064" xlink:href="#y"/></g><g transform="translate(2.504 -.719)"><use height="100%" width="100%" y="21.006" x="118.663" xlink:href="#aj"/><use height="100%" width="100%" y="21.006" x="122.247" xlink:href="#ak"/><use height="100%" width="100%" y="21.006" x="126.855" xlink:href="#al"/><use height="100%" width="100%" y="21.006" x="131.462" xlink:href="#am"/><use height="100%" width="100%" y="21.006" x="139.515" xlink:href="#P"/><use height="100%" width="100%" y="21.006" x="144.635" xlink:href="#an"/><use height="100%" width="100%" y="21.006" x="149.658" xlink:href="#ao"/></g><path d="M213.215 27.758v5.3" fill="none" stroke="#000" stroke-width=".797" stroke-miterlimit="10"/><path d="M213.215 37.723c.258-1.383 1.035-3.63 1.945-5.184h-3.886c.906 1.555 1.683 3.8 1.94 5.184"/><use xlink:href="#ap" transform="translate(79.13 -142.434)" width="100%" height="100%"/><use xlink:href="#aq" transform="translate(79.13 -142.434)" width="100%" height="100%"/></svg>